<?xml version="1.0" encoding="UTF-8" standalone="no"?>
<!DOCTYPE svg PUBLIC "-//W3C//DTD SVG 1.1//EN" "http://www.w3.org/Graphics/SVG/1.1/DTD/svg11.dtd">
<svg version="1.1" xmlns="http://www.w3.org/2000/svg" xmlns:xlink="http://www.w3.org/1999/xlink" preserveAspectRatio="xMidYMid meet" viewBox="0 0 640 640" width="640" height="640"><defs><path d="M320 0C143.27 0 0 143.27 0 320C0 496.73 143.27 640 320 640C496.73 640 640 496.73 640 320C640 143.27 496.73 0 320 0Z" id="a20uE4SYeu"></path><path d="M320 19.86C154.24 19.86 19.86 154.24 19.86 320C19.86 485.76 154.24 620.14 320 620.14C485.76 620.14 620.14 485.76 620.14 320C620.14 154.24 485.76 19.86 320 19.86Z" id="h16kNJBF35"></path><path d="M181.96 416.99C183.14 415.81 202.63 416.11 204.54 417.29C205.87 418.03 206.32 428.8 206.32 455.08C206.32 457.53 206.32 469.79 206.32 491.84L226.69 492.29L246.91 492.73L246.91 504.54L246.91 516.35C227.25 516.62 216.33 516.76 214.14 516.79C195.98 516.94 181.22 516.65 181.22 516.05C180.78 503.51 181.37 417.58 181.96 416.99Z" id="e6GP7O9Er"></path><path d="M258.73 416.11C265.28 416.2 268.92 416.25 269.65 416.26C275.56 416.4 281.02 416.99 281.76 417.73C282.49 418.47 282.94 440.17 282.79 467.78C282.76 471.02 282.61 487.21 282.35 516.35L270.09 516.79L257.99 517.23L258.28 466.75L258.73 416.11Z" id="f2cGUp4wYW"></path><path d="M316.01 490.51C312.46 480.33 308.48 469.4 307.15 466.15C305.97 462.91 304.05 457.3 302.87 453.61C301.69 449.92 300.06 445.63 299.32 444.01C294.75 433.68 290.32 417.73 291.5 416.55C292.39 415.66 298.14 415.22 304.64 415.52C305.42 415.55 309.3 415.69 316.3 415.96C320.73 429.25 323.19 436.63 323.68 438.1C332.39 464.38 334.76 472.8 334.76 478.7C334.76 483.58 337.41 486.08 339.33 482.99C340.07 481.8 340.66 478.56 340.66 475.75C340.66 470.44 356.16 420.39 358.82 417.14C360.89 414.34 383.33 414.48 384.36 417.14C384.8 418.32 383.62 422.75 381.85 427.18C380.08 431.61 378.16 436.78 377.57 438.84C375.8 444.31 352.18 509.85 350.26 514.58C349.37 516.65 347.3 517.09 337.56 517.09C326.19 517.09 325.75 516.94 324.27 513.1C323.39 510.74 319.7 500.7 316.01 490.51Z" id="bb0NkDEas"></path><path d="M393.81 417.44C394.84 416.7 443.56 416.26 461.42 416.7C462.6 416.7 463.19 420.09 463.19 428.51C463.19 429.29 463.19 433.17 463.19 440.17L441.49 440.62L419.64 441.06C419.38 445.31 419.23 447.67 419.2 448.14C418.9 453.02 419.35 455.08 420.68 455.23C421.71 455.23 430.27 455.38 439.57 455.23C448.87 455.23 457.44 455.67 458.47 456.41C459.8 457.15 460.24 460.54 459.95 467.78C459.92 468.46 459.77 471.85 459.5 477.97L439.57 478.7L419.64 479.44L419.64 486.08L419.64 492.73L441.49 493.17L463.19 493.61L463.19 505.28L463.19 517.09C442.56 517.09 431.09 517.09 428.8 517.09C409.75 517.09 393.81 516.65 393.37 516.05C391.74 514.43 392.18 418.47 393.81 417.44Z" id="g4dybwfp7L"></path><path d="M113.31 305.68C113.31 302.34 113.31 285.66 113.31 255.63L125.56 256.08L137.67 256.52L138.41 294.16L139.14 331.81L159.52 332.25L179.89 332.7L179.45 344.8L179.01 356.91C159.87 357.17 149.24 357.32 147.12 357.35C129.69 357.5 114.93 357.2 114.34 356.76C113.75 356.17 113.31 333.14 113.31 305.68Z" id="g1Du3yvvA4"></path><path d="M190.08 305.68C190.08 302.35 190.08 285.72 190.08 255.78L225.21 256.08L260.2 256.52L260.65 268.03L261.09 279.4C248.42 279.4 241.38 279.4 239.98 279.4C228.31 279.4 217.98 279.99 216.95 280.73C215.62 281.47 215.17 284.27 215.47 288.41C215.5 288.84 215.65 291 215.91 294.9L236.29 295.34L256.66 295.79L256.22 306.42L255.77 317.05L235.84 317.79L215.91 318.52L215.47 325.46L215.03 332.4L237.61 332.84L260.2 333.29C260.47 339.84 260.62 343.48 260.65 344.21C260.94 352.04 260.5 355.58 259.17 356.32C256.95 357.79 192.44 358.09 191.11 356.61C190.52 356.17 190.08 333.14 190.08 305.68Z" id="o2X9UJojWc"></path><path d="M272.16 337.71C274.96 329.6 280.28 314.69 283.67 304.5C291.94 281.03 298.73 261.68 300.06 258.44C300.95 256.22 303.02 255.78 312.76 255.78C319.11 255.78 324.42 256.08 324.42 256.22C324.42 256.52 326.49 262.42 329 269.21C331.51 276.01 334.76 285.31 336.23 289.73C337.71 294.16 341.1 303.47 343.61 310.4C351.88 332.84 358.67 352.48 358.82 354.69C359.12 356.46 356.75 357.06 347.3 357.35C340.81 357.5 334.76 357.2 333.87 356.61C332.98 355.88 330.92 351.45 329.44 346.57C329.25 345.98 328.32 343.03 326.64 337.71L312.76 337.71L298.88 337.71C297.29 343.03 296.4 345.98 296.22 346.57C294.6 351.3 292.53 355.88 291.5 356.46C290.61 357.06 284.56 357.65 278.36 357.65C268.32 357.65 266.84 357.35 266.84 355.14C266.84 353.66 269.21 345.84 272.16 337.71ZM317.78 305.09C316.6 301.1 315.56 296.08 315.56 294.02C315.56 291.8 314.53 289.29 313.35 288.26C311.58 286.78 311.13 287.23 310.4 290.77C309.81 292.98 308.48 298.89 307.3 303.76C305.82 310.11 305.67 312.77 306.85 313.51C308.63 314.54 318.22 314.09 319.4 312.91C319.7 312.62 318.96 309.08 317.78 305.09Z" id="g1e2Fq3pR"></path><path d="M385.54 332.55C384.36 328.86 382.74 324.58 382 322.95C379.78 317.79 375.8 307.01 373.14 298.59C371.66 294.16 367.68 283.24 364.43 274.23C361.18 265.38 358.38 257.4 358.38 256.81C358.38 256.22 364.43 255.93 371.81 256.08C372.71 256.1 377.18 256.25 385.24 256.52C390.47 272.46 393.37 281.32 393.96 283.09C398.68 297.71 402.67 311.44 402.67 313.65C402.67 319.12 405.32 325.46 407.1 324.43C407.83 323.99 408.57 321.03 408.57 317.93C408.57 314.83 409.75 308.48 411.38 303.61C412.85 298.89 416.99 286.04 420.38 275.27C420.8 273.96 422.92 267.41 426.73 255.63C434.79 255.9 439.27 256.05 440.16 256.08C448.14 256.37 453.45 257.11 453.3 258C453.16 258.88 450.94 265.08 448.43 272.02C445.92 278.96 441.94 289.88 439.57 296.38C437.36 302.87 432.93 314.83 429.98 322.95C427.03 331.07 423.48 341.11 422.3 345.1C418.61 356.32 416.99 357.65 406.5 357.65C401.49 357.65 396.61 357.06 395.43 356.32C393.51 355.14 390.85 348.79 385.54 332.55Z" id="b3YtUZZynr"></path><path d="M460.54 305.24C460.57 301.99 460.71 285.75 460.98 256.52L496.12 256.08L531.11 255.78L531.11 267.59L531.11 279.25L509.4 279.7L487.55 280.14L487.11 287.82L486.67 295.49L507.04 295.94L527.42 296.38L527.42 306.71L527.42 317.05L507.19 317.49L486.81 317.93L486.81 325.17L486.81 332.55L508.96 332.55L531.25 332.55L530.81 344.8L530.37 356.91C509.73 357.17 498.26 357.32 495.97 357.35C469.25 357.65 461.42 357.35 460.98 355.88C460.54 354.84 460.39 331.96 460.54 305.24Z" id="g29ptvLVXG"></path><path d="M409.31 180.93C410.49 177.98 411.52 175.17 411.52 174.58C411.52 172.81 402.22 169.42 401.63 171.04C398.53 178.86 395.58 182.7 393.07 182.26C387.46 181.23 387.46 179.31 393.37 162.48C399.12 146.39 399.42 145.79 403.55 145.79C408.13 145.79 408.57 147.86 406.36 157.16C405.47 160.71 405.91 161.44 409.31 162.77C414.18 164.69 415.81 163.51 418.02 156.57C419.79 151.26 422.74 149.93 426.58 153.03C428.94 154.8 428.94 155.54 425.4 165.14C423.33 170.75 420.53 178.57 419.05 182.55C416.25 190.82 415.07 191.56 410.49 188.31C407.39 186.25 407.24 185.8 409.31 180.93Z" id="dqC3EGhsh"></path><path d="M226.98 169.86C223.74 161.59 223.59 161.44 218.42 161.74C213.55 162.03 212.96 161.59 212.52 158.34C212.22 155.1 212.96 154.21 217.68 152.73C220.78 151.55 224.62 150.22 226.25 149.63C227.87 148.89 231.12 147.57 233.48 146.68C241.6 143.43 245.14 151.26 237.47 155.69C237.17 155.84 235.69 156.63 233.04 158.05C236.05 165.58 237.72 169.76 238.06 170.6C242.63 182.55 242.78 183.29 240.42 185.51C236.58 189.05 234.51 188.46 232.3 183.15C231.12 180.49 228.76 174.44 226.98 169.86Z" id="jh0jJ6M23"></path><path d="M258.28 141.96C258.58 140.92 263.15 139.15 268.47 138.12C283.38 135.31 284.56 135.46 284.56 140.33C284.56 144.17 283.97 144.61 277.62 145.94C271.72 146.98 270.39 147.86 270.09 150.81C269.65 154.06 269.95 154.21 273.78 153.18C282.35 150.67 285.3 151.4 285.74 155.83C286.19 159.23 285.74 159.82 282.49 159.82C277.03 159.82 270.98 162.48 271.72 164.69C272.01 165.87 275.41 166.46 281.02 166.46C289.28 166.46 289.73 166.61 289.73 170.15C289.73 173.4 288.84 173.99 281.61 175.47C277.18 176.36 271.72 177.68 269.5 178.27C266.55 179.01 265.22 178.72 264.78 177.39C261.09 166.02 257.25 144.91 258.28 141.96Z" id="bazPk1yea"></path><path d="M349.52 158.93C349.52 143.28 354.39 136.35 365.31 136.2C370.19 136.2 372.7 137.23 376.24 140.33C379.05 142.84 380.52 145.35 379.93 146.24C378.6 148.45 372.25 148.6 370.92 146.53C369.45 144.17 362.95 144.91 361.62 147.71C359.41 151.7 358.38 161.89 359.7 164.1C360.59 165.43 362.66 165.87 365.91 165.28C376.09 163.81 379.78 170.15 370.92 173.99C365.17 176.36 363.54 176.5 358.38 174.44C351 171.48 349.52 168.83 349.52 158.93Z" id="ckZKgCYj1"></path><path d="M308.03 151.11C313.79 133.84 316.3 130.59 321.62 133.39C322.8 133.99 325.75 139.45 327.96 145.35C330.18 151.26 333.28 159.23 334.76 163.07C336.23 166.76 337.12 170.3 336.53 170.75C336.08 171.19 333.87 171.63 331.51 171.63C328.41 171.63 326.93 170.75 325.9 167.79C324.57 164.54 323.68 164.1 318.96 164.54C314.38 164.84 313.2 165.58 312.91 168.38C312.46 171.04 311.43 171.63 307.3 171.63C304.2 171.63 302.28 170.89 302.42 169.86C302.42 168.83 304.93 160.41 308.03 151.11ZM319.25 148.01C317.93 148.01 317.04 149.34 317.04 151.7C317.04 154.06 317.93 155.39 319.25 155.39C320.58 155.39 321.47 154.06 321.47 151.7C321.47 149.34 320.58 148.01 319.25 148.01Z" id="b3NlMNpgG"></path><path d="M179.75 416.99C180.93 415.81 200.42 416.11 202.34 417.29C203.67 418.03 204.11 428.8 204.11 455.08C204.11 457.53 204.11 469.79 204.11 491.84L224.48 492.29L244.71 492.73L244.71 504.54L244.71 516.35C225.04 516.62 214.12 516.76 211.93 516.79C193.77 516.94 179.01 516.65 179.01 516.05C178.57 503.51 179.16 417.58 179.75 416.99Z" id="betASaqE8"></path><path d="M256.52 416.11C263.07 416.2 266.71 416.25 267.44 416.26C273.35 416.4 278.81 416.99 279.55 417.73C280.29 418.47 280.73 440.17 280.58 467.78C280.55 471.02 280.41 487.21 280.14 516.35L267.89 516.79L255.78 517.23L256.08 466.75L256.52 416.11Z" id="a1agQDLaFR"></path><path d="M313.8 490.51C310.26 480.33 306.27 469.4 304.94 466.15C303.76 462.91 301.84 457.3 300.66 453.61C299.48 449.92 297.86 445.63 297.12 444.01C292.54 433.68 288.11 417.73 289.29 416.55C290.18 415.66 295.94 415.22 302.43 415.52C303.21 415.55 307.1 415.69 314.09 415.96C318.52 429.25 320.98 436.63 321.48 438.1C330.19 464.38 332.55 472.8 332.55 478.7C332.55 483.58 335.21 486.08 337.13 482.99C337.86 481.8 338.45 478.56 338.45 475.75C338.45 470.44 353.96 420.39 356.61 417.14C358.68 414.34 381.12 414.48 382.15 417.14C382.6 418.32 381.41 422.75 379.64 427.18C377.87 431.61 375.95 436.78 375.36 438.84C373.59 444.31 349.97 509.85 348.05 514.58C347.16 516.65 345.1 517.09 335.35 517.09C323.99 517.09 323.54 516.94 322.07 513.1C321.18 510.74 317.49 500.7 313.8 490.51Z" id="a8PW5DLUF"></path><path d="M391.6 417.44C392.64 416.7 441.35 416.26 459.22 416.7C460.4 416.7 460.99 420.09 460.99 428.51C460.99 429.29 460.99 433.17 460.99 440.17L439.28 440.62L417.44 441.06C417.17 445.31 417.02 447.67 416.99 448.14C416.7 453.02 417.14 455.08 418.47 455.23C419.5 455.23 428.07 455.38 437.37 455.23C446.67 455.23 455.23 455.67 456.26 456.41C457.59 457.15 458.03 460.54 457.74 467.78C457.71 468.46 457.56 471.85 457.3 477.97L437.37 478.7L417.44 479.44L417.44 486.08L417.44 492.73L439.28 493.17L460.99 493.61L460.99 505.28L460.99 517.09C440.35 517.09 428.88 517.09 426.59 517.09C407.55 517.09 391.6 516.65 391.16 516.05C389.53 514.43 389.98 418.47 391.6 417.44Z" id="a6d9AMotx5"></path><path d="M111.1 305.68C111.1 302.34 111.1 285.66 111.1 255.63L123.35 256.08L135.46 256.52L136.2 294.16L136.94 331.81L157.31 332.25L177.68 332.7L177.24 344.8L176.8 356.91C157.67 357.17 147.04 357.32 144.91 357.35C127.49 357.5 112.73 357.2 112.13 356.76C111.55 356.17 111.1 333.14 111.1 305.68Z" id="b36OYsSigC"></path><path d="M187.87 305.68C187.87 302.35 187.87 285.72 187.87 255.78L223.01 256.08L258 256.52L258.44 268.03L258.88 279.4C246.21 279.4 239.18 279.4 237.77 279.4C226.11 279.4 215.77 279.99 214.74 280.73C213.41 281.47 212.97 284.27 213.26 288.41C213.29 288.84 213.44 291 213.7 294.9L234.08 295.34L254.45 295.79L254.01 306.42L253.57 317.05L233.64 317.79L213.7 318.52L213.26 325.46L212.82 332.4L235.41 332.84L258 333.29C258.26 339.84 258.41 343.48 258.44 344.21C258.73 352.04 258.29 355.58 256.96 356.32C254.75 357.79 190.23 358.09 188.9 356.61C188.31 356.17 187.87 333.14 187.87 305.68Z" id="f2qv70MIql"></path><path d="M269.95 337.71C272.76 329.6 278.07 314.69 281.47 304.5C289.73 281.03 296.53 261.68 297.86 258.44C298.74 256.22 300.81 255.78 310.55 255.78C316.9 255.78 322.21 256.08 322.21 256.22C322.21 256.52 324.28 262.42 326.79 269.21C329.3 276.01 332.55 285.31 334.02 289.73C335.5 294.16 338.9 303.47 341.41 310.4C349.67 332.84 356.46 352.48 356.61 354.69C356.91 356.46 354.55 357.06 345.1 357.35C338.6 357.5 332.55 357.2 331.66 356.61C330.78 355.88 328.71 351.45 327.23 346.57C327.05 345.98 326.11 343.03 324.43 337.71L310.55 337.71L296.68 337.71C295.08 343.03 294.19 345.98 294.02 346.57C292.39 351.3 290.33 355.88 289.29 356.46C288.41 357.06 282.35 357.65 276.15 357.65C266.11 357.65 264.64 357.35 264.64 355.14C264.64 353.66 267 345.84 269.95 337.71ZM315.57 305.09C314.39 301.1 313.36 296.08 313.36 294.02C313.36 291.8 312.32 289.29 311.14 288.26C309.37 286.78 308.93 287.23 308.19 290.77C307.6 292.98 306.27 298.89 305.09 303.76C303.61 310.11 303.47 312.77 304.65 313.51C306.42 314.54 316.01 314.09 317.2 312.91C317.49 312.62 316.75 309.08 315.57 305.09Z" id="g1CTM8vAHq"></path><path d="M383.33 332.55C382.15 328.86 380.53 324.58 379.79 322.95C377.58 317.79 373.59 307.01 370.93 298.59C369.46 294.16 365.47 283.24 362.22 274.23C358.97 265.38 356.17 257.4 356.17 256.81C356.17 256.22 362.22 255.93 369.6 256.08C370.5 256.1 374.98 256.25 383.04 256.52C388.26 272.46 391.17 281.32 391.75 283.09C396.47 297.71 400.46 311.44 400.46 313.65C400.46 319.12 403.12 325.46 404.89 324.43C405.63 323.99 406.36 321.03 406.36 317.93C406.36 314.83 407.55 308.48 409.17 303.61C410.65 298.89 414.78 286.04 418.17 275.27C418.6 273.96 420.71 267.41 424.52 255.63C432.58 255.9 437.06 256.05 437.96 256.08C445.93 256.37 451.24 257.11 451.1 258C450.95 258.88 448.73 265.08 446.23 272.02C443.71 278.96 439.73 289.88 437.37 296.38C435.15 302.87 430.72 314.83 427.77 322.95C424.82 331.07 421.27 341.11 420.09 345.1C416.4 356.32 414.78 357.65 404.3 357.65C399.28 357.65 394.41 357.06 393.22 356.32C391.3 355.14 388.65 348.79 383.33 332.55Z" id="b4vxsSZitU"></path><path d="M458.33 305.24C458.36 301.99 458.51 285.75 458.77 256.52L493.91 256.08L528.9 255.78L528.9 267.59L528.9 279.25L507.2 279.7L485.35 280.14L484.9 287.82L484.46 295.49L504.83 295.94L525.21 296.38L525.21 306.71L525.21 317.05L504.98 317.49L484.61 317.93L484.61 325.17L484.61 332.55L506.75 332.55L529.05 332.55L528.6 344.8L528.16 356.91C507.52 357.17 496.06 357.32 493.76 357.35C467.04 357.65 459.22 357.35 458.77 355.88C458.33 354.84 458.18 331.96 458.33 305.24Z" id="a1TMaVpIQ3"></path><path d="M407.1 180.93C408.28 177.98 409.32 175.17 409.32 174.58C409.32 172.81 400.02 169.42 399.43 171.04C396.33 178.86 393.37 182.7 390.86 182.26C385.25 181.23 385.25 179.31 391.16 162.48C396.91 146.39 397.21 145.79 401.34 145.79C405.92 145.79 406.36 147.86 404.15 157.16C403.26 160.71 403.71 161.44 407.1 162.77C411.97 164.69 413.6 163.51 415.81 156.57C417.58 151.26 420.54 149.93 424.38 153.03C426.74 154.8 426.74 155.54 423.19 165.14C421.13 170.75 418.32 178.57 416.85 182.55C414.04 190.82 412.86 191.56 408.28 188.31C405.18 186.25 405.04 185.8 407.1 180.93Z" id="fzgvUfmuw"></path><path d="M224.78 169.86C221.53 161.59 221.38 161.44 216.22 161.74C211.34 162.03 210.75 161.59 210.31 158.34C210.01 155.1 210.75 154.21 215.48 152.73C218.58 151.55 222.42 150.22 224.04 149.63C225.66 148.89 228.91 147.57 231.27 146.68C239.39 143.43 242.94 151.26 235.26 155.69C234.96 155.84 233.49 156.63 230.83 158.05C233.84 165.58 235.52 169.76 235.85 170.6C240.43 182.55 240.57 183.29 238.21 185.51C234.37 189.05 232.31 188.46 230.09 183.15C228.91 180.49 226.55 174.44 224.78 169.86Z" id="aEwbPVRCm"></path><path d="M256.08 141.96C256.37 140.92 260.95 139.15 266.26 138.12C281.17 135.31 282.35 135.46 282.35 140.33C282.35 144.17 281.76 144.61 275.42 145.94C269.51 146.98 268.18 147.86 267.89 150.81C267.44 154.06 267.74 154.21 271.58 153.18C280.14 150.67 283.09 151.4 283.54 155.83C283.98 159.23 283.54 159.82 280.29 159.82C274.82 159.82 268.77 162.48 269.51 164.69C269.81 165.87 273.2 166.46 278.81 166.46C287.08 166.46 287.52 166.61 287.52 170.15C287.52 173.4 286.64 173.99 279.4 175.47C274.97 176.36 269.51 177.68 267.29 178.27C264.34 179.01 263.01 178.72 262.57 177.39C258.88 166.02 255.04 144.91 256.08 141.96Z" id="b6rcP86dfU"></path><path d="M347.31 158.93C347.31 143.28 352.18 136.35 363.11 136.2C367.98 136.2 370.49 137.23 374.03 140.33C376.84 142.84 378.32 145.35 377.72 146.24C376.4 148.45 370.05 148.6 368.72 146.53C367.24 144.17 360.75 144.91 359.42 147.71C357.2 151.7 356.17 161.89 357.5 164.1C358.38 165.43 360.45 165.87 363.7 165.28C373.89 163.81 377.58 170.15 368.72 173.99C362.96 176.36 361.34 176.5 356.17 174.44C348.79 171.48 347.31 168.83 347.31 158.93Z" id="hg0YrDdMZ"></path><path d="M305.83 151.11C311.59 133.84 314.09 130.59 319.41 133.39C320.59 133.99 323.54 139.45 325.76 145.35C327.97 151.26 331.07 159.23 332.55 163.07C334.02 166.76 334.91 170.3 334.32 170.75C333.88 171.19 331.66 171.63 329.3 171.63C326.2 171.63 324.72 170.75 323.69 167.79C322.36 164.54 321.48 164.1 316.75 164.54C312.18 164.84 310.99 165.58 310.7 168.38C310.26 171.04 309.22 171.63 305.09 171.63C301.99 171.63 300.07 170.89 300.22 169.86C300.22 168.83 302.73 160.41 305.83 151.11ZM317.05 148.01C315.72 148.01 314.83 149.34 314.83 151.7C314.83 154.06 315.72 155.39 317.05 155.39C318.38 155.39 319.26 154.06 319.26 151.7C319.26 149.34 318.38 148.01 317.05 148.01Z" id="cmHNyhZhT"></path></defs><g><g><g><use xlink:href="#a20uE4SYeu" opacity="1" fill="#000000" fill-opacity="1"></use><g><use xlink:href="#a20uE4SYeu" opacity="1" fill-opacity="0" stroke="#000000" stroke-width="1" stroke-opacity="0"></use></g></g><g><use xlink:href="#h16kNJBF35" opacity="1" fill="#000000" fill-opacity="1"></use><g><use xlink:href="#h16kNJBF35" opacity="1" fill-opacity="0" stroke="#00ffff" stroke-width="4" stroke-opacity="1"></use></g></g><g><use xlink:href="#e6GP7O9Er" opacity="1" fill="#00ffff" fill-opacity="1"></use><g><use xlink:href="#e6GP7O9Er" opacity="1" fill-opacity="0" stroke="#000000" stroke-width="1" stroke-opacity="0"></use></g></g><g><use xlink:href="#f2cGUp4wYW" opacity="1" fill="#00ffff" fill-opacity="1"></use><g><use xlink:href="#f2cGUp4wYW" opacity="1" fill-opacity="0" stroke="#000000" stroke-width="1" stroke-opacity="0"></use></g></g><g><use xlink:href="#bb0NkDEas" opacity="1" fill="#00ffff" fill-opacity="1"></use><g><use xlink:href="#bb0NkDEas" opacity="1" fill-opacity="0" stroke="#000000" stroke-width="1" stroke-opacity="0"></use></g></g><g><use xlink:href="#g4dybwfp7L" opacity="1" fill="#00ffff" fill-opacity="1"></use><g><use xlink:href="#g4dybwfp7L" opacity="1" fill-opacity="0" stroke="#000000" stroke-width="1" stroke-opacity="0"></use></g></g><g><use xlink:href="#g1Du3yvvA4" opacity="1" fill="#00ffff" fill-opacity="1"></use><g><use xlink:href="#g1Du3yvvA4" opacity="1" fill-opacity="0" stroke="#000000" stroke-width="1" stroke-opacity="0"></use></g></g><g><use xlink:href="#o2X9UJojWc" opacity="1" fill="#00ffff" fill-opacity="1"></use><g><use xlink:href="#o2X9UJojWc" opacity="1" fill-opacity="0" stroke="#000000" stroke-width="1" stroke-opacity="0"></use></g></g><g><use xlink:href="#g1e2Fq3pR" opacity="1" fill="#00ffff" fill-opacity="1"></use><g><use xlink:href="#g1e2Fq3pR" opacity="1" fill-opacity="0" stroke="#000000" stroke-width="1" stroke-opacity="0"></use></g></g><g><use xlink:href="#b3YtUZZynr" opacity="1" fill="#00ffff" fill-opacity="1"></use><g><use xlink:href="#b3YtUZZynr" opacity="1" fill-opacity="0" stroke="#000000" stroke-width="1" stroke-opacity="0"></use></g></g><g><use xlink:href="#g29ptvLVXG" opacity="1" fill="#00ffff" fill-opacity="1"></use><g><use xlink:href="#g29ptvLVXG" opacity="1" fill-opacity="0" stroke="#000000" stroke-width="1" stroke-opacity="0"></use></g></g><g><use xlink:href="#dqC3EGhsh" opacity="1" fill="#00ffff" fill-opacity="1"></use><g><use xlink:href="#dqC3EGhsh" opacity="1" fill-opacity="0" stroke="#000000" stroke-width="1" stroke-opacity="0"></use></g></g><g><use xlink:href="#jh0jJ6M23" opacity="1" fill="#00ffff" fill-opacity="1"></use><g><use xlink:href="#jh0jJ6M23" opacity="1" fill-opacity="0" stroke="#000000" stroke-width="1" stroke-opacity="0"></use></g></g><g><use xlink:href="#bazPk1yea" opacity="1" fill="#00ffff" fill-opacity="1"></use><g><use xlink:href="#bazPk1yea" opacity="1" fill-opacity="0" stroke="#000000" stroke-width="1" stroke-opacity="0"></use></g></g><g><use xlink:href="#ckZKgCYj1" opacity="1" fill="#00ffff" fill-opacity="1"></use><g><use xlink:href="#ckZKgCYj1" opacity="1" fill-opacity="0" stroke="#000000" stroke-width="1" stroke-opacity="0"></use></g></g><g><use xlink:href="#b3NlMNpgG" opacity="1" fill="#00ffff" fill-opacity="1"></use><g><use xlink:href="#b3NlMNpgG" opacity="1" fill-opacity="0" stroke="#000000" stroke-width="1" stroke-opacity="0"></use></g></g><g><use xlink:href="#betASaqE8" opacity="1" fill="#fafafa" fill-opacity="1"></use><g><use xlink:href="#betASaqE8" opacity="1" fill-opacity="0" stroke="#000000" stroke-width="1" stroke-opacity="0"></use></g></g><g><use xlink:href="#a1agQDLaFR" opacity="1" fill="#fafafa" fill-opacity="1"></use><g><use xlink:href="#a1agQDLaFR" opacity="1" fill-opacity="0" stroke="#000000" stroke-width="1" stroke-opacity="0"></use></g></g><g><use xlink:href="#a8PW5DLUF" opacity="1" fill="#fafafa" fill-opacity="1"></use><g><use xlink:href="#a8PW5DLUF" opacity="1" fill-opacity="0" stroke="#000000" stroke-width="1" stroke-opacity="0"></use></g></g><g><use xlink:href="#a6d9AMotx5" opacity="1" fill="#fafafa" fill-opacity="1"></use><g><use xlink:href="#a6d9AMotx5" opacity="1" fill-opacity="0" stroke="#000000" stroke-width="1" stroke-opacity="0"></use></g></g><g><use xlink:href="#b36OYsSigC" opacity="1" fill="#fafafa" fill-opacity="1"></use><g><use xlink:href="#b36OYsSigC" opacity="1" fill-opacity="0" stroke="#000000" stroke-width="1" stroke-opacity="0"></use></g></g><g><use xlink:href="#f2qv70MIql" opacity="1" fill="#fafafa" fill-opacity="1"></use><g><use xlink:href="#f2qv70MIql" opacity="1" fill-opacity="0" stroke="#000000" stroke-width="1" stroke-opacity="0"></use></g></g><g><use xlink:href="#g1CTM8vAHq" opacity="1" fill="#fafafa" fill-opacity="1"></use><g><use xlink:href="#g1CTM8vAHq" opacity="1" fill-opacity="0" stroke="#000000" stroke-width="1" stroke-opacity="0"></use></g></g><g><use xlink:href="#b4vxsSZitU" opacity="1" fill="#fafafa" fill-opacity="1"></use><g><use xlink:href="#b4vxsSZitU" opacity="1" fill-opacity="0" stroke="#000000" stroke-width="1" stroke-opacity="0"></use></g></g><g><use xlink:href="#a1TMaVpIQ3" opacity="1" fill="#fafafa" fill-opacity="1"></use><g><use xlink:href="#a1TMaVpIQ3" opacity="1" fill-opacity="0" stroke="#000000" stroke-width="1" stroke-opacity="0"></use></g></g><g><use xlink:href="#fzgvUfmuw" opacity="1" fill="#fafafa" fill-opacity="1"></use><g><use xlink:href="#fzgvUfmuw" opacity="1" fill-opacity="0" stroke="#000000" stroke-width="1" stroke-opacity="0"></use></g></g><g><use xlink:href="#aEwbPVRCm" opacity="1" fill="#fafafa" fill-opacity="1"></use><g><use xlink:href="#aEwbPVRCm" opacity="1" fill-opacity="0" stroke="#000000" stroke-width="1" stroke-opacity="0"></use></g></g><g><use xlink:href="#b6rcP86dfU" opacity="1" fill="#fafafa" fill-opacity="1"></use><g><use xlink:href="#b6rcP86dfU" opacity="1" fill-opacity="0" stroke="#000000" stroke-width="1" stroke-opacity="0"></use></g></g><g><use xlink:href="#hg0YrDdMZ" opacity="1" fill="#fafafa" fill-opacity="1"></use><g><use xlink:href="#hg0YrDdMZ" opacity="1" fill-opacity="0" stroke="#000000" stroke-width="1" stroke-opacity="0"></use></g></g><g><use xlink:href="#cmHNyhZhT" opacity="1" fill="#fafafa" fill-opacity="1"></use><g><use xlink:href="#cmHNyhZhT" opacity="1" fill-opacity="0" stroke="#000000" stroke-width="1" stroke-opacity="0"></use></g></g></g></g></svg>