<!DOCTYPE svg PUBLIC "-//W3C//DTD SVG 20010904//EN" "http://www.w3.org/TR/2001/REC-SVG-20010904/DTD/svg10.dtd">
<svg version="1.0" xmlns="http://www.w3.org/2000/svg" width="583px" height="583px" viewBox="0 0 5830 5830" preserveAspectRatio="xMidYMid meet">
<g id="layer101" fill="#010202" stroke="none">
<path d="M0 2915 l0 -2915 2915 0 2915 0 0 2915 0 2915 -2915 0 -2915 0 0 -2915z"/>
</g>
<g id="layer102" fill="#00ffff" stroke="none">
<path d="M0 2915 l0 -2915 2915 0 2915 0 0 2915 0 2915 -2915 0 -2915 0 0 -2915z m3198 2019 c264 -35 525 -127 762 -266 270 -159 549 -438 708 -708 191 -326 284 -665 284 -1045 0 -240 -29 -422 -102 -646 -31 -94 -39 -113 -97 -239 -158 -338 -466 -675 -793 -868 -326 -191 -665 -284 -1045 -284 -557 0 -1046 203 -1440 597 -205 205 -318 372 -449 666 -24 56 -73 210 -96 304 -70 291 -70 650 1 943 48 200 127 394 231 572 159 270 438 549 708 708 406 239 860 330 1328 266z"/>
<path d="M2695 4818 c-227 -29 -486 -108 -660 -204 -22 -12 -64 -34 -93 -50 -95 -51 -265 -185 -378 -299 -114 -114 -248 -283 -298 -377 -16 -29 -38 -71 -50 -93 -70 -127 -156 -372 -181 -515 -45 -256 -45 -474 0 -730 25 -143 111 -388 181 -515 12 -22 34 -64 50 -93 50 -94 184 -263 298 -377 113 -114 283 -248 378 -299 29 -16 71 -38 93 -50 135 -74 362 -152 535 -185 222 -41 468 -41 690 0 173 33 400 111 535 185 22 12 64 34 93 50 95 51 265 185 378 299 114 114 248 283 298 377 16 29 38 71 50 93 70 127 156 372 181 515 45 256 45 474 0 730 -25 143 -111 388 -181 515 -12 22 -34 64 -50 93 -50 94 -184 263 -298 377 -113 114 -283 248 -378 299 -29 16 -71 38 -93 50 -135 74 -362 152 -535 185 -167 31 -408 39 -565 19z m518 -82 c264 -45 528 -152 745 -302 117 -81 135 -96 257 -219 123 -122 138 -140 219 -257 154 -224 264 -501 308 -778 17 -110 17 -420 0 -530 -44 -277 -154 -554 -308 -778 -81 -117 -96 -135 -219 -257 -122 -123 -140 -138 -257 -219 -224 -154 -501 -264 -778 -308 -110 -17 -420 -17 -530 0 -277 44 -554 154 -778 308 -117 81 -135 96 -257 219 -123 122 -138 140 -219 257 -154 224 -264 501 -308 778 -17 109 -17 419 0 530 43 276 154 554 308 778 81 117 96 135 219 257 122 123 140 138 257 219 227 156 524 273 778 305 47 6 96 13 110 15 52 9 369 -4 453 -18z"/>
</g>
<g id="layer103" fill="#fafafa" stroke="none">
<path d="M1960 4243 c-3 -85 1 -667 5 -671 8 -8 140 -6 153 2 9 5 12 78 12 256 l0 249 138 3 137 3 0 80 0 80 -222 3 c-123 1 -223 -1 -223 -5z"/>
<path d="M2482 3909 l3 -343 74 1 c40 1 77 5 82 10 5 5 8 152 7 339 l-3 329 -83 3 -82 3 2 -342z"/>
<path d="M2929 4223 c-6 -16 -31 -84 -56 -153 -24 -69 -51 -143 -60 -165 -8 -22 -21 -60 -29 -85 -8 -25 -19 -54 -24 -65 -31 -70 -61 -178 -53 -186 6 -6 45 -9 89 -7 l79 3 50 150 c59 178 75 235 75 275 0 33 18 50 31 29 5 -8 9 -30 9 -49 0 -36 105 -375 123 -397 14 -19 166 -18 173 0 3 8 -5 38 -17 68 -12 30 -25 65 -29 79 -12 37 -172 481 -185 513 -6 14 -20 17 -86 17 -77 0 -80 -1 -90 -27z"/>
<path d="M3397 4243 c-11 -11 -8 -661 3 -668 7 -5 337 -8 458 -5 8 0 12 23 12 80 l0 79 -147 3 -148 3 -3 48 c-2 33 1 47 10 48 7 0 65 1 128 0 63 0 121 3 128 8 9 5 12 28 10 77 l-3 69 -135 5 -135 5 0 45 0 45 148 3 147 3 0 79 0 80 -233 0 c-129 0 -237 -3 -240 -7z"/>
<path d="M1507 3164 c-4 -4 -7 -160 -7 -346 l0 -339 83 3 82 3 5 255 5 255 138 3 138 3 -3 82 -3 82 -216 3 c-118 1 -218 -1 -222 -4z"/>
<path d="M2027 3163 c-4 -3 -7 -159 -7 -345 l0 -338 238 2 237 3 3 78 3 77 -143 0 c-79 0 -149 4 -156 9 -9 5 -12 24 -10 52 l3 44 138 3 138 3 -3 72 -3 72 -135 5 -135 5 -3 47 -3 47 153 3 153 3 3 74 c2 53 -1 77 -10 82 -15 10 -452 12 -461 2z"/>
<path d="M2540 3153 c0 -10 16 -63 36 -118 19 -55 55 -156 78 -225 56 -159 102 -290 111 -312 6 -15 20 -18 86 -18 43 0 79 2 79 3 0 2 14 42 31 88 17 46 39 109 49 139 10 30 33 93 50 140 56 152 102 285 103 300 2 12 -14 16 -78 18 -44 1 -85 -1 -91 -5 -6 -5 -20 -35 -30 -68 l-19 -60 -94 0 -94 0 -18 60 c-11 32 -25 63 -32 67 -6 4 -47 8 -89 8 -68 0 -78 -2 -78 -17z m356 -286 c2 -2 -3 -26 -11 -53 -8 -27 -15 -61 -15 -75 0 -15 -7 -32 -15 -39 -12 -10 -15 -7 -20 17 -4 15 -13 55 -21 88 -10 43 -11 61 -3 66 12 7 77 4 85 -4z"/>
<path d="M3411 3161 c-13 -8 -31 -51 -67 -161 -8 -25 -19 -54 -24 -65 -15 -35 -42 -108 -60 -165 -10 -30 -37 -104 -59 -165 -22 -60 -41 -114 -41 -118 0 -4 41 -6 91 -5 l91 3 59 180 c32 99 59 192 59 207 0 37 18 80 30 73 5 -3 10 -23 10 -44 0 -21 8 -64 19 -97 10 -32 38 -119 61 -192 l43 -133 91 3 c54 2 90 7 89 13 -1 6 -16 48 -33 95 -17 47 -44 121 -60 165 -15 44 -45 125 -65 180 -20 55 -44 123 -52 150 -25 76 -36 85 -107 85 -34 0 -67 -4 -75 -9z"/>
<path d="M3855 3158 c-3 -7 -4 -162 -3 -343 l3 -330 238 -3 237 -2 0 80 0 79 -147 3 -148 3 -3 52 -3 52 138 3 138 3 0 70 0 70 -137 3 -138 3 0 49 0 50 150 0 151 0 -3 83 -3 82 -233 3 c-181 2 -234 0 -237 -10z"/>
<path d="M3513 2023 c-21 -14 -22 -17 -8 -50 8 -20 15 -39 15 -43 0 -12 -63 -35 -67 -24 -21 53 -41 79 -58 76 -38 -7 -38 -20 2 -134 39 -109 41 -113 69 -113 31 0 34 14 19 77 -6 24 -3 29 20 38 33 13 44 5 59 -42 12 -36 32 -45 58 -24 16 12 16 17 -8 82 -14 38 -33 91 -43 118 -19 56 -27 61 -58 39z"/>
<path d="M2306 1988 c-8 -18 -24 -59 -36 -90 -22 -56 -23 -57 -58 -55 -33 2 -37 -1 -40 -23 -2 -22 3 -28 35 -38 21 -8 47 -17 58 -21 11 -5 33 -14 49 -20 55 -22 79 31 27 61 l-30 16 34 85 c31 81 32 86 16 101 -26 24 -40 20 -55 -16z"/>
<path d="M2526 1949 c-25 -77 -51 -220 -44 -240 2 -7 33 -19 69 -26 101 -19 109 -18 109 15 0 26 -4 29 -47 38 -40 7 -49 13 -51 33 -3 22 -1 23 25 16 58 -17 78 -12 81 18 3 23 0 27 -22 27 -37 0 -78 18 -73 33 2 8 25 12 63 12 56 0 59 1 59 25 0 22 -6 26 -55 36 -30 6 -67 15 -82 19 -20 5 -29 3 -32 -6z"/>
<path d="M3160 1929 c-50 -20 -60 -38 -60 -105 0 -106 33 -153 107 -154 33 0 50 7 74 28 19 17 29 34 25 40 -9 15 -52 16 -61 2 -10 -16 -54 -11 -63 8 -15 27 -22 96 -13 111 6 9 20 12 42 8 69 -10 94 33 34 59 -39 16 -50 17 -85 3z"/>
<path d="M2781 1898 c0 -7 17 -64 38 -127 39 -117 56 -139 92 -120 8 4 28 41 43 81 15 40 36 94 46 120 10 25 16 49 12 52 -3 3 -18 6 -34 6 -21 0 -31 -6 -38 -26 -9 -22 -15 -25 -47 -22 -31 2 -39 7 -41 26 -3 18 -10 22 -38 22 -21 0 -34 -5 -33 -12z m129 -123 c0 -16 -6 -25 -15 -25 -9 0 -15 9 -15 25 0 16 6 25 15 25 9 0 15 -9 15 -25z"/>
</g>


</svg>