<svg width="340" height="340" viewBox="0 0 340 340" fill="none" xmlns="http://www.w3.org/2000/svg">
<circle cx="195" cy="195" r="145" fill="black"/>
<circle cx="195" cy="195" r="136" fill="black" stroke="#00FFFF" stroke-width="4"/>
<path d="M132.115 283.837C131.914 278.151 132.182 239.218 132.449 238.95C132.985 238.415 141.815 238.549 142.684 239.084C143.286 239.419 143.487 244.302 143.487 256.209V272.866L152.719 273.067L161.883 273.268V278.619V283.971L147.033 284.172C138.804 284.238 132.115 284.105 132.115 283.837Z" fill="#00FFFF"/>
<path d="M167.034 261.494L167.235 238.549L172.185 238.616C174.861 238.683 177.336 238.95 177.671 239.285C178.005 239.619 178.206 249.453 178.139 261.962L177.938 283.971L172.386 284.172L166.901 284.372L167.034 261.494Z" fill="#00FFFF"/>
<path d="M196.937 282.499C196.535 281.429 194.863 276.88 193.19 272.264C191.585 267.648 189.779 262.698 189.177 261.226C188.642 259.755 187.772 257.213 187.237 255.54C186.702 253.868 185.966 251.928 185.631 251.192C183.557 246.509 181.551 239.285 182.086 238.75C182.487 238.348 185.096 238.148 188.039 238.281L193.324 238.482L196.669 248.516C200.616 260.424 201.686 264.237 201.686 266.913C201.686 269.12 202.89 270.257 203.76 268.853C204.094 268.317 204.362 266.846 204.362 265.575C204.362 263.166 211.386 240.489 212.59 239.017C213.527 237.746 223.695 237.813 224.163 239.017C224.364 239.552 223.828 241.559 223.026 243.566C222.223 245.573 221.353 247.914 221.086 248.851C220.283 251.326 209.58 281.027 208.71 283.168C208.309 284.105 207.372 284.305 202.957 284.305C197.806 284.305 197.606 284.238 196.937 282.499Z" fill="#00FFFF"/>
<path d="M228.244 283.837C227.508 283.101 227.708 239.619 228.444 239.151C228.913 238.816 250.988 238.616 259.082 238.816C259.617 238.816 259.885 240.355 259.885 244.168V249.453L250.051 249.654L240.151 249.854L239.95 253.065C239.816 255.273 240.017 256.209 240.619 256.276C241.087 256.276 244.967 256.343 249.182 256.276C253.396 256.276 257.276 256.477 257.744 256.811C258.346 257.146 258.547 258.684 258.413 261.962L258.213 266.578L249.182 266.913L240.151 267.247V270.257V273.268L250.051 273.468L259.885 273.669V278.954V284.305H244.298C235.669 284.305 228.444 284.105 228.244 283.837Z" fill="#00FFFF"/>
<path d="M101.811 211.657C101.544 211.389 101.343 200.954 101.343 188.511V165.834L106.895 166.034L112.381 166.235L112.715 183.293L113.05 200.352L122.281 200.552L131.513 200.753L131.312 206.238L131.112 211.724L116.662 211.925C108.768 211.991 102.079 211.858 101.811 211.657Z" fill="#00FFFF"/>
<path d="M136.597 211.59C136.329 211.389 136.129 200.954 136.129 188.511V165.901L152.05 166.034L167.904 166.235L168.105 171.453L168.305 176.604H158.739C153.455 176.604 148.772 176.871 148.304 177.206C147.702 177.54 147.501 178.811 147.635 180.684L147.835 183.628L157.067 183.828L166.298 184.029L166.098 188.846L165.897 193.662L156.866 193.997L147.835 194.331L147.635 197.475L147.434 200.619L157.669 200.82L167.904 201.021L168.105 205.971C168.238 209.516 168.038 211.122 167.436 211.456C166.432 212.125 137.199 212.259 136.597 211.59Z" fill="#00FFFF"/>
<path d="M170.914 210.921C170.914 210.252 171.985 206.707 173.322 203.027C174.593 199.348 177.002 192.592 178.54 187.976C182.286 177.34 185.364 168.576 185.966 167.105C186.367 166.101 187.304 165.901 191.719 165.901C194.595 165.901 197.003 166.034 197.003 166.101C197.003 166.235 197.94 168.911 199.077 171.988C200.214 175.065 201.686 179.28 202.355 181.286C203.024 183.293 204.563 187.508 205.7 190.652C209.446 200.82 212.523 209.717 212.59 210.72C212.724 211.523 211.654 211.791 207.372 211.925C204.429 211.991 201.686 211.858 201.285 211.59C200.883 211.256 199.947 209.249 199.278 207.041L198.007 203.027H191.719H185.431L184.226 207.041C183.491 209.182 182.554 211.256 182.086 211.523C181.684 211.791 178.942 212.058 176.132 212.058C171.583 212.058 170.914 211.925 170.914 210.921ZM194.729 191.789C194.863 191.655 194.528 190.05 193.993 188.244C193.458 186.437 192.99 184.163 192.99 183.226C192.99 182.223 192.521 181.086 191.986 180.617C191.184 179.949 190.983 180.149 190.648 181.755C190.381 182.758 189.779 185.434 189.244 187.642C188.575 190.518 188.508 191.722 189.043 192.057C189.846 192.525 194.194 192.324 194.729 191.789Z" fill="#00FFFF"/>
<path d="M229.18 211.456C228.31 210.921 227.106 208.045 224.698 200.686C224.163 199.014 223.427 197.074 223.093 196.338C222.089 193.997 220.283 189.113 219.079 185.3C218.41 183.293 216.604 178.343 215.132 174.262C213.66 170.249 212.389 166.636 212.389 166.369C212.389 166.101 215.132 165.967 218.477 166.034L224.564 166.235L228.511 178.276C230.652 184.899 232.458 191.12 232.458 192.123C232.458 194.599 233.662 197.475 234.465 197.007C234.799 196.806 235.134 195.468 235.134 194.063C235.134 192.659 235.669 189.782 236.405 187.575C237.074 185.434 238.947 179.614 240.485 174.731L243.362 165.834L249.449 166.034C253.062 166.168 255.47 166.503 255.403 166.904C255.336 167.305 254.333 170.115 253.196 173.259C252.058 176.403 250.252 181.353 249.182 184.297C248.178 187.24 246.172 192.659 244.834 196.338C243.496 200.017 241.89 204.566 241.355 206.372C239.683 211.456 238.947 212.058 234.197 212.058C231.923 212.058 229.715 211.791 229.18 211.456Z" fill="#00FFFF"/>
<path d="M258.882 211.256C258.681 210.787 258.614 200.419 258.681 188.31L258.882 166.235L274.803 166.034L290.657 165.901V171.252V176.537L280.823 176.738L270.923 176.938L270.722 180.417L270.521 183.895L279.753 184.096L288.985 184.297V188.979V193.662L279.82 193.863L270.588 194.063V197.341V200.686H280.623H290.724L290.523 206.238L290.322 211.724L274.736 211.925C262.628 212.058 259.082 211.925 258.882 211.256Z" fill="#00FFFF"/>
<path d="M236.003 135.329C234.599 134.393 234.532 134.192 235.468 131.985C236.003 130.647 236.472 129.376 236.472 129.108C236.472 128.305 232.257 126.767 231.99 127.503C230.585 131.048 229.247 132.787 228.11 132.587C225.568 132.118 225.568 131.249 228.244 123.623C230.852 116.331 230.986 116.063 232.859 116.063C234.933 116.063 235.134 117 234.13 121.214C233.729 122.82 233.93 123.154 235.468 123.756C237.676 124.626 238.412 124.091 239.415 120.947C240.218 118.539 241.556 117.937 243.295 119.341C244.365 120.144 244.365 120.479 242.76 124.827C241.823 127.369 240.552 130.914 239.883 132.72C238.612 136.467 238.077 136.801 236.003 135.329Z" fill="#00FFFF"/>
<path d="M155.261 132.988C154.726 131.784 153.655 129.041 152.852 126.967C151.381 123.221 151.314 123.154 148.973 123.288C146.765 123.422 146.497 123.221 146.297 121.75C146.163 120.278 146.497 119.876 148.638 119.208C150.043 118.672 151.782 118.07 152.518 117.803C153.254 117.468 154.726 116.866 155.796 116.465C159.475 114.993 161.081 118.539 157.602 120.545L155.595 121.616L157.87 127.302C159.943 132.72 160.01 133.055 158.94 134.058C157.201 135.664 156.264 135.396 155.261 132.988Z" fill="#00FFFF"/>
<path d="M169.978 130.379C168.305 125.228 166.566 115.662 167.034 114.324C167.168 113.856 169.242 113.053 171.65 112.585C178.407 111.314 178.942 111.381 178.942 113.588C178.942 115.328 178.674 115.528 175.798 116.13C173.122 116.599 172.52 117 172.386 118.338C172.185 119.81 172.319 119.877 174.058 119.408C177.938 118.271 179.276 118.605 179.477 120.612C179.678 122.151 179.477 122.419 178.005 122.419C175.53 122.419 172.787 123.623 173.122 124.626C173.256 125.161 174.794 125.429 177.336 125.429C181.082 125.429 181.283 125.496 181.283 127.101C181.283 128.573 180.882 128.84 177.604 129.509C175.597 129.911 173.122 130.513 172.118 130.78C170.78 131.115 170.178 130.981 169.978 130.379Z" fill="#00FFFF"/>
<path d="M212.389 129.041C209.045 127.703 208.376 126.499 208.376 122.017C208.376 114.926 210.583 111.782 215.533 111.715C217.741 111.715 218.878 112.184 220.484 113.588C221.755 114.726 222.424 115.863 222.156 116.264C221.554 117.268 218.678 117.334 218.075 116.398C217.407 115.328 214.463 115.662 213.861 116.933C212.858 118.739 212.389 123.355 212.991 124.358C213.393 124.961 214.329 125.161 215.801 124.894C220.417 124.225 222.089 127.101 218.075 128.84C215.467 129.911 214.731 129.978 212.389 129.041Z" fill="#00FFFF"/>
<path d="M187.036 126.967C187.036 126.499 188.173 122.686 189.578 118.472C192.187 110.645 193.324 109.173 195.732 110.444C196.268 110.712 197.605 113.187 198.609 115.863C199.612 118.539 201.017 122.151 201.686 123.89C202.355 125.563 202.756 127.168 202.489 127.369C202.288 127.569 201.285 127.77 200.214 127.77C198.81 127.77 198.141 127.369 197.672 126.031C197.07 124.559 196.669 124.358 194.528 124.559C192.455 124.693 191.919 125.027 191.786 126.298C191.585 127.503 191.117 127.77 189.244 127.77C187.839 127.77 186.969 127.436 187.036 126.967ZM195.666 118.739C195.666 117.669 195.264 117.067 194.662 117.067C194.06 117.067 193.659 117.669 193.659 118.739C193.659 119.81 194.06 120.412 194.662 120.412C195.264 120.412 195.666 119.81 195.666 118.739Z" fill="#00FFFF"/>
<path d="M131.115 283.837C130.914 278.151 131.182 239.218 131.449 238.95C131.985 238.415 140.815 238.549 141.684 239.084C142.286 239.419 142.487 244.302 142.487 256.209V272.866L151.719 273.067L160.883 273.268V278.619V283.971L146.033 284.172C137.804 284.238 131.115 284.105 131.115 283.837Z" fill="#FAFAFA"/>
<path d="M166.034 261.494L166.235 238.549L171.185 238.616C173.861 238.683 176.336 238.95 176.671 239.285C177.005 239.619 177.206 249.453 177.139 261.962L176.938 283.971L171.386 284.172L165.901 284.372L166.034 261.494Z" fill="#FAFAFA"/>
<path d="M195.937 282.499C195.535 281.429 193.863 276.88 192.19 272.264C190.585 267.648 188.779 262.698 188.177 261.226C187.642 259.755 186.772 257.213 186.237 255.54C185.702 253.868 184.966 251.928 184.631 251.192C182.557 246.509 180.551 239.285 181.086 238.75C181.487 238.348 184.096 238.148 187.039 238.281L192.324 238.482L195.669 248.516C199.616 260.424 200.686 264.237 200.686 266.913C200.686 269.12 201.89 270.257 202.76 268.853C203.094 268.317 203.362 266.846 203.362 265.575C203.362 263.166 210.386 240.489 211.59 239.017C212.527 237.746 222.695 237.813 223.163 239.017C223.364 239.552 222.828 241.559 222.026 243.566C221.223 245.573 220.353 247.914 220.086 248.851C219.283 251.326 208.58 281.027 207.71 283.168C207.309 284.105 206.372 284.305 201.957 284.305C196.806 284.305 196.606 284.238 195.937 282.499Z" fill="#FAFAFA"/>
<path d="M227.244 283.837C226.508 283.101 226.708 239.619 227.444 239.151C227.913 238.816 249.988 238.616 258.082 238.816C258.617 238.816 258.885 240.355 258.885 244.168V249.453L249.051 249.654L239.151 249.854L238.95 253.065C238.816 255.273 239.017 256.209 239.619 256.276C240.087 256.276 243.967 256.343 248.182 256.276C252.396 256.276 256.276 256.477 256.744 256.811C257.346 257.146 257.547 258.684 257.413 261.962L257.213 266.578L248.182 266.913L239.151 267.247V270.257V273.268L249.051 273.468L258.885 273.669V278.954V284.305H243.298C234.669 284.305 227.444 284.105 227.244 283.837Z" fill="#FAFAFA"/>
<path d="M100.811 211.657C100.544 211.389 100.343 200.954 100.343 188.511V165.834L105.895 166.034L111.381 166.235L111.715 183.293L112.05 200.352L121.281 200.552L130.513 200.753L130.312 206.238L130.112 211.724L115.662 211.925C107.768 211.991 101.079 211.858 100.811 211.657Z" fill="#FAFAFA"/>
<path d="M135.597 211.59C135.329 211.389 135.129 200.954 135.129 188.511V165.901L151.05 166.034L166.904 166.235L167.105 171.453L167.305 176.604H157.739C152.455 176.604 147.772 176.871 147.304 177.206C146.702 177.54 146.501 178.811 146.635 180.684L146.835 183.628L156.067 183.828L165.298 184.029L165.098 188.846L164.897 193.662L155.866 193.997L146.835 194.331L146.635 197.475L146.434 200.619L156.669 200.82L166.904 201.021L167.105 205.971C167.238 209.516 167.038 211.122 166.436 211.456C165.432 212.125 136.199 212.259 135.597 211.59Z" fill="#FAFAFA"/>
<path d="M169.914 210.921C169.914 210.252 170.985 206.707 172.322 203.027C173.593 199.348 176.002 192.592 177.54 187.976C181.286 177.34 184.364 168.576 184.966 167.105C185.367 166.101 186.304 165.901 190.719 165.901C193.595 165.901 196.003 166.034 196.003 166.101C196.003 166.235 196.94 168.911 198.077 171.988C199.214 175.065 200.686 179.28 201.355 181.286C202.024 183.293 203.563 187.508 204.7 190.652C208.446 200.82 211.523 209.717 211.59 210.72C211.724 211.523 210.654 211.791 206.372 211.925C203.429 211.991 200.686 211.858 200.285 211.59C199.883 211.256 198.947 209.249 198.278 207.041L197.007 203.027H190.719H184.431L183.226 207.041C182.491 209.182 181.554 211.256 181.086 211.523C180.684 211.791 177.942 212.058 175.132 212.058C170.583 212.058 169.914 211.925 169.914 210.921ZM193.729 191.789C193.863 191.655 193.528 190.05 192.993 188.244C192.458 186.437 191.99 184.163 191.99 183.226C191.99 182.223 191.521 181.086 190.986 180.617C190.184 179.949 189.983 180.149 189.648 181.755C189.381 182.758 188.779 185.434 188.244 187.642C187.575 190.518 187.508 191.722 188.043 192.057C188.846 192.525 193.194 192.324 193.729 191.789Z" fill="#FAFAFA"/>
<path d="M228.18 211.456C227.31 210.921 226.106 208.045 223.698 200.686C223.163 199.014 222.427 197.074 222.093 196.338C221.089 193.997 219.283 189.113 218.079 185.3C217.41 183.293 215.604 178.343 214.132 174.262C212.66 170.249 211.389 166.636 211.389 166.369C211.389 166.101 214.132 165.967 217.477 166.034L223.564 166.235L227.511 178.276C229.652 184.899 231.458 191.12 231.458 192.123C231.458 194.599 232.662 197.475 233.465 197.007C233.799 196.806 234.134 195.468 234.134 194.063C234.134 192.659 234.669 189.782 235.405 187.575C236.074 185.434 237.947 179.614 239.485 174.731L242.362 165.834L248.449 166.034C252.062 166.168 254.47 166.503 254.403 166.904C254.336 167.305 253.333 170.115 252.196 173.259C251.058 176.403 249.252 181.353 248.182 184.297C247.178 187.24 245.172 192.659 243.834 196.338C242.496 200.017 240.89 204.566 240.355 206.372C238.683 211.456 237.947 212.058 233.197 212.058C230.923 212.058 228.715 211.791 228.18 211.456Z" fill="#FAFAFA"/>
<path d="M257.882 211.256C257.681 210.787 257.614 200.419 257.681 188.31L257.882 166.235L273.803 166.034L289.657 165.901V171.252V176.537L279.823 176.738L269.923 176.938L269.722 180.417L269.521 183.895L278.753 184.096L287.985 184.297V188.979V193.662L278.82 193.863L269.588 194.063V197.341V200.686H279.623H289.724L289.523 206.238L289.323 211.724L273.736 211.925C261.628 212.058 258.082 211.925 257.882 211.256Z" fill="#FAFAFA"/>
<path d="M235.003 135.329C233.599 134.393 233.532 134.192 234.468 131.985C235.003 130.647 235.472 129.376 235.472 129.108C235.472 128.305 231.257 126.767 230.99 127.503C229.585 131.048 228.247 132.787 227.11 132.587C224.568 132.118 224.568 131.249 227.244 123.623C229.852 116.331 229.986 116.063 231.859 116.063C233.933 116.063 234.134 117 233.13 121.214C232.729 122.82 232.93 123.154 234.468 123.756C236.676 124.626 237.412 124.091 238.415 120.947C239.218 118.539 240.556 117.937 242.295 119.341C243.365 120.144 243.365 120.479 241.76 124.827C240.823 127.369 239.552 130.914 238.883 132.72C237.612 136.467 237.077 136.801 235.003 135.329Z" fill="#FAFAFA"/>
<path d="M154.261 132.988C153.726 131.784 152.655 129.041 151.853 126.967C150.381 123.221 150.314 123.154 147.973 123.288C145.765 123.422 145.497 123.221 145.297 121.75C145.163 120.278 145.497 119.877 147.638 119.208C149.043 118.672 150.782 118.07 151.518 117.803C152.254 117.468 153.726 116.866 154.796 116.465C158.475 114.993 160.081 118.539 156.602 120.545L154.595 121.616L156.87 127.302C158.943 132.72 159.01 133.055 157.94 134.058C156.201 135.664 155.264 135.396 154.261 132.988Z" fill="#FAFAFA"/>
<path d="M168.978 130.379C167.305 125.228 165.566 115.662 166.034 114.324C166.168 113.856 168.242 113.053 170.65 112.585C177.407 111.314 177.942 111.381 177.942 113.588C177.942 115.328 177.674 115.528 174.798 116.13C172.122 116.599 171.52 117 171.386 118.338C171.185 119.81 171.319 119.877 173.058 119.408C176.938 118.271 178.276 118.605 178.477 120.612C178.678 122.151 178.477 122.419 177.005 122.419C174.53 122.419 171.787 123.623 172.122 124.626C172.256 125.161 173.794 125.429 176.336 125.429C180.082 125.429 180.283 125.496 180.283 127.101C180.283 128.573 179.882 128.84 176.604 129.509C174.597 129.911 172.122 130.513 171.118 130.78C169.78 131.115 169.178 130.981 168.978 130.379Z" fill="#FAFAFA"/>
<path d="M211.389 129.041C208.045 127.703 207.376 126.499 207.376 122.017C207.376 114.926 209.583 111.782 214.533 111.715C216.741 111.715 217.878 112.184 219.484 113.588C220.755 114.726 221.424 115.863 221.156 116.264C220.554 117.268 217.678 117.334 217.075 116.398C216.407 115.328 213.463 115.662 212.861 116.933C211.858 118.739 211.389 123.355 211.991 124.359C212.393 124.961 213.329 125.161 214.801 124.894C219.417 124.225 221.089 127.101 217.075 128.84C214.467 129.911 213.731 129.978 211.389 129.041Z" fill="#FAFAFA"/>
<path d="M186.036 126.967C186.036 126.499 187.173 122.686 188.578 118.472C191.187 110.645 192.324 109.173 194.732 110.444C195.268 110.712 196.606 113.187 197.609 115.863C198.612 118.539 200.017 122.151 200.686 123.89C201.355 125.563 201.756 127.168 201.489 127.369C201.288 127.569 200.285 127.77 199.214 127.77C197.81 127.77 197.141 127.369 196.672 126.031C196.07 124.559 195.669 124.358 193.528 124.559C191.455 124.693 190.919 125.027 190.786 126.298C190.585 127.503 190.117 127.77 188.244 127.77C186.839 127.77 185.969 127.436 186.036 126.967ZM194.666 118.739C194.666 117.669 194.264 117.067 193.662 117.067C193.06 117.067 192.659 117.669 192.659 118.739C192.659 119.81 193.06 120.412 193.662 120.412C194.264 120.412 194.666 119.81 194.666 118.739Z" fill="#FAFAFA"/>
</svg>
